<?xml version="1.0" encoding="UTF-8"?>
<svg id="tree-image" xmlns="http://www.w3.org/2000/svg" version="1.1" viewBox="0 0 512 512">
  <!-- Generator: Adobe Illustrator 29.2.1, SVG Export Plug-In . SVG Version: 2.1.0 Build 116)  -->
  <defs>
    <style>
      .st0 {
        fill: #fff;
        font-family: MyriadPro-Regular, 'Myriad Pro';
        font-size: 200px;
      }

      .st1 {
        fill: #2154a4;
        fill-rule: evenodd;
      }
    </style>
  </defs>
  <path class="st1" d="M236.3,512v-109.4s-20.4-4.6-35-18.6-8.5-8.6-8.5-8.6c0,0-78.8,36.2-132-40.6s16.5-134.7,16.5-134.7c0,0-24.7-30.8-1.7-77.5,23-46.7,61.3-37.2,61.3-37.2,0,0,25-82.4,117.8-85.4s123.6,85.4,123.6,85.4c0,0,44.5.8,63.4,41.2s-3.9,73.5-3.9,73.5c0,0,50.9,44.6,26.8,113.7s-142.3,61.6-142.3,61.6c0,0-2.8,10.1-19.8,19.8s-23.7,7.3-23.7,7.3v109.4h-42.7Z"/>
  <text class="st0" transform="translate(143.1 314.7)"><tspan x="0" y="0">BC</tspan></text>
</svg>